# xmcd
#
# Track frame offsets: 
#        150
#        20842
#        44763
#        65424
#        88560
#        110118
#        130023
#        153234
#        172542
#        188104
#        208112
#        228129
#
# Disc length: 3324 seconds
#
# Revision: 0
# Processed by: cddbd v1.5.2PL0 Copyright (c) Steve Scherf et al.
# Submitted via: ExactAudioCopy v1.0b3
#
DISCID=9b0cfa0c
DTITLE=赵蓉 - DTS ES 正品 秀色
DYEAR=2007
DGENRE=DTS ES
TTITLE0=蓝莲花
TTITLE1=千年泪
TTITLE2=想起
TTITLE3=相逢是首歌
TTITLE4=晚秋
TTITLE5=泪桥 
TTITLE6=红颜
TTITLE7=彩云追月
TTITLE8=踏浪
TTITLE9=你的样子
TTITLE10=断点
TTITLE11=赞歌
EXTD=
EXTT0=
EXTT1=
EXTT2=
EXTT3=
EXTT4=
EXTT5=
EXTT6=
EXTT7=
EXTT8=
EXTT9=
EXTT10=
EXTT11=
PLAYORDER=
